# xmcd
#
# Track frame offsets: 
#        150
#        15415
#        53774
#        87496
#        128717
#        149583
#        181381
#        217434
#        233482
#        278709
#        297837
#        308280
#        317324
#        333012
#
# Disc length: 4708 seconds
#
# Revision: 1
# Processed by: cddbd v1.5.2PL0 Copyright (c) Steve Scherf et al.
# Submitted via: ExactAudioCopyFreeDBPlugin 1.0
#
DISCID=be12620e
DTITLE=Stark Reality - Acting, Thinking, Feeling: The Complete Works 1
DTITLE=968-1978 [CD3]
DYEAR=1978
DGENRE=Funk
TTITLE0=On Being Black
TTITLE1=New World Generation
TTITLE2=Red Yellow Moonbeams (Big Band Version)
TTITLE3=Red Yellow Moonbeams
TTITLE4=Nani
TTITLE5=Pretty Music
TTITLE6=Roller Coaster Ride
TTITLE7=Too Much Tenderness
TTITLE8=Sundays Song
TTITLE9=Acting, Thinking, Feeling Pt 1
TTITLE10=Acting, Thinking, Feeling Pt 2
TTITLE11=Acting, Thinking, Feeling Pt 3
TTITLE12=Prelude To Say Brother
TTITLE13=Theme To Say Brother
EXTD=
EXTT0=
EXTT1=
EXTT2=
EXTT3=
EXTT4=
EXTT5=
EXTT6=
EXTT7=
EXTT8=
EXTT9=
EXTT10=
EXTT11=
EXTT12=
EXTT13=
PLAYORDER=
